[Header]
FileType HTR
DataType HTRS
FileVersion 1
NumSegments 64
NumFrames 3
DataFrameRate 24
EulerRotationOrder ZYX
CalibrationUnits mm
RotationUnits Degrees
GlobalAxisofGravity Y
BoneLengthAxis Y
ScaleFactor 1.0
[SegmentNames&Hierarchy]
Hips	GLOBAL
Spine	Hips
Spine1	Spine
Spine2	Spine1
Neck	Spine2
Head	Neck
LeftEye	Head
RightEye	Head
LeftShoulder	Spine2
LeftArm	LeftShoulder
LeftForeArm	LeftArm
LeftHand	LeftForeArm
LeftHandThumb1	LeftHand
LeftHandThumb2	LeftHandThumb1
LeftHandThumb3	LeftHandThumb2
LeftHandThumb4	LeftHandThumb3
LeftHandIndex1	LeftHand
LeftHandIndex2	LeftHandIndex1
LeftHandIndex3	LeftHandIndex2
LeftHandIndex4	LeftHandIndex3
LeftHandMiddle1	LeftHand
LeftHandMiddle2	LeftHandMiddle1
LeftHandMiddle3	LeftHandMiddle2
LeftHandMiddle4	LeftHandMiddle3
LeftHandRing1	LeftHand
LeftHandRing2	LeftHandRing1
LeftHandRing3	LeftHandRing2
LeftHandRing4	LeftHandRing3
LeftHandPinky1	LeftHand
LeftHandPinky2	LeftHandPinky1
LeftHandPinky3	LeftHandPinky2
LeftHandPinky4	LeftHandPinky3
RightShoulder	Spine2
RightArm	RightShoulder
RightForeArm	RightArm
RightHand	RightForeArm
RightHandPinky1	RightHand
RightHandPinky2	RightHandPinky1
RightHandPinky3	RightHandPinky2
RightHandPinky4	RightHandPinky3
RightHandRing1	RightHand
RightHandRing2	RightHandRing1
RightHandRing3	RightHandRing2
RightHandRing4	RightHandRing3
RightHandMiddle1	RightHand
RightHandMiddle2	RightHandMiddle1
RightHandMiddle3	RightHandMiddle2
RightHandMiddle4	RightHandMiddle3
RightHandIndex1	RightHand
RightHandIndex2	RightHandIndex1
RightHandIndex3	RightHandIndex2
RightHandIndex4	RightHandIndex3
RightHandThumb1	RightHand
RightHandThumb2	RightHandThumb1
RightHandThumb3	RightHandThumb2
RightHandThumb4	RightHandThumb3
LeftUpLeg	Hips
LeftLeg	LeftUpLeg
LeftFoot	LeftLeg
LeftToeBase	LeftFoot
RightUpLeg	Hips
RightLeg	RightUpLeg
RightFoot	RightLeg
RightToeBase	RightFoot
[BasePosition]
Hips	0	0	0	0	0	0	1
Spine	0	0	0	0	0	0	1
Spine1	0	0	0	0	0	0	1
Spine2	0	0	0	0	0	0	1
Neck	0	0	0	0	0	0	1
Head	0	0	0	0	0	0	1
LeftEye	0	0	0	0	0	0	1
RightEye	0	0	0	0	0	0	1
LeftShoulder	0	0	0	0	0	0	1
LeftArm	0	0	0	0	0	0	1
LeftForeArm	0	0	0	0	0	0	1
LeftHand	0	0	0	0	0	0	1
LeftHandThumb1	0	0	0	0	0	0	1
LeftHandThumb2	0	0	0	0	0	0	1
LeftHandThumb3	0	0	0	0	0	0	1
LeftHandThumb4	0	0	0	0	0	0	1
LeftHandIndex1	0	0	0	0	0	0	1
LeftHandIndex2	0	0	0	0	0	0	1
LeftHandIndex3	0	0	0	0	0	0	1
LeftHandIndex4	0	0	0	0	0	0	1
LeftHandMiddle1	0	0	0	0	0	0	1
LeftHandMiddle2	0	0	0	0	0	0	1
LeftHandMiddle3	0	0	0	0	0	0	1
LeftHandMiddle4	0	0	0	0	0	0	1
LeftHandRing1	0	0	0	0	0	0	1
LeftHandRing2	0	0	0	0	0	0	1
LeftHandRing3	0	0	0	0	0	0	1
LeftHandRing4	0	0	0	0	0	0	1
LeftHandPinky1	0	0	0	0	0	0	1
LeftHandPinky2	0	0	0	0	0	0	1
LeftHandPinky3	0	0	0	0	0	0	1
LeftHandPinky4	0	0	0	0	0	0	1
RightShoulder	0	0	0	0	0	0	1
RightArm	0	0	0	0	0	0	1
RightForeArm	0	0	0	0	0	0	1
RightHand	0	0	0	0	0	0	1
RightHandPinky1	0	0	0	0	0	0	1
RightHandPinky2	0	0	0	0	0	0	1
RightHandPinky3	0	0	0	0	0	0	1
RightHandPinky4	0	0	0	0	0	0	1
RightHandRing1	0	0	0	0	0	0	1
RightHandRing2	0	0	0	0	0	0	1
RightHandRing3	0	0	0	0	0	0	1
RightHandRing4	0	0	0	0	0	0	1
RightHandMiddle1	0	0	0	0	0	0	1
RightHandMiddle2	0	0	0	0	0	0	1
RightHandMiddle3	0	0	0	0	0	0	1
RightHandMiddle4	0	0	0	0	0	0	1
RightHandIndex1	0	0	0	0	0	0	1
RightHandIndex2	0	0	0	0	0	0	1
RightHandIndex3	0	0	0	0	0	0	1
RightHandIndex4	0	0	0	0	0	0	1
RightHandThumb1	0	0	0	0	0	0	1
RightHandThumb2	0	0	0	0	0	0	1
RightHandThumb3	0	0	0	0	0	0	1
RightHandThumb4	0	0	0	0	0	0	1
LeftUpLeg	0	0	0	0	0	0	1
LeftLeg	0	0	0	0	0	0	1
LeftFoot	0	0	0	0	0	0	1
LeftToeBase	0	0	0	0	0	0	1
RightUpLeg	0	0	0	0	0	0	1
RightLeg	0	0	0	0	0	0	1
RightFoot	0	0	0	0	0	0	1
RightToeBase	0	0	0	0	0	0	1
[Hips]
13	10.99324989	926.7049561	2276.293457	23.03520203	-2.519052744	-7.74162817	1.0
14	9.291418076	924.3807983	2470.443604	21.28182983	-3.405551195	-6.26632309	1.0
15	5.154442787	900.4684448	2666.734375	20.92808914	-5.214848995	-7.97009325	1.0
[Spine]
13	0	101.8159943	1.315000057	9.251753807	-10.84835625	4.602808475	1.0
14	0	101.8159943	1.315000057	11.59274578	-8.710773468	3.57421422	1.0
15	0	101.8159943	1.315000057	12.7940979	-5.55077076	5.495129585	1.0
[Spine1]
13	0	100.8349991	-10.00800037	1.214762211	-2.897296429	0.5457969904	1.0
14	0	100.8349991	-10.00800037	1.617528796	-2.262858391	0.3903581202	1.0
15	0	100.8349991	-10.00800037	1.875674486	-1.345230937	0.7082067728	1.0
[Spine2]
13	0	91	-13.73399925	1.213996649	-2.893414497	0.5394981503	1.0
14	0	91	-13.73399925	1.618229628	-2.25593257	0.3891145885	1.0
15	0	91	-13.73399925	1.871697545	-1.34542191	0.7003588676	1.0
[Neck]
13	0	166.7169952	-25.16200066	-6.356151581	0.4117067456	2.153698444	1.0
14	0	166.7169952	-25.16200066	-6.061787128	0.2320041955	1.655280828	1.0
15	0	166.7169952	-25.16200066	-6.235061169	-0.08604753017	1.489820957	1.0
[Head]
13	0	96.17900085	16.84999847	-20.76320457	17.38054466	0.7435677648	1.0
14	0	96.17900085	16.84999847	-22.79939842	15.16245079	-1.512715101	1.0
15	0	96.17900085	16.84999847	-24.56924438	12.63120842	-3.478468895	1.0
[LeftEye]
13	30.6760006	64.09500122	92.83599854	0	0	0	1.0
14	30.6760006	64.09500122	92.83599854	0	0	0	1.0
15	30.6760006	64.09500122	92.83599854	0	0	0	1.0
[RightEye]
13	-30.6760006	64.09500122	92.83499908	0	0	0	1.0
14	-30.6760006	64.09500122	92.83499908	0	0	0	1.0
15	-30.6760006	64.09500122	92.83499908	0	0	0	1.0
[LeftShoulder]
13	45.70400238	109.4599991	-26.28000069	0.9004716873	-1.460464478	-11.51197433	1.0
14	45.70400238	109.4599991	-26.28000069	1.447165728	-3.99358201	-13.10216808	1.0
15	45.70400238	109.4599991	-26.28000069	1.238003969	-2.695332527	-14.62055302	1.0
[LeftArm]
13	105.923996	-5.24600029	-22.32099915	-8.976970673	-20.58273888	-27.62116814	1.0
14	105.923996	-5.24600029	-22.32099915	-0.5043515563	-11.43325996	-37.11938858	1.0
15	105.923996	-5.24600029	-22.32099915	5.90901947	-0.6018650532	-47.54660034	1.0
[LeftForeArm]
13	278.414978	-0.0009999999311	0	-3.051757813e-05	-104.8787613	-0.0001831054688	1.0
14	278.414978	-0.0009999999311	0	-3.051758176e-05	-97.29213715	-0.0001678466797	1.0
15	278.414978	-0.0009999999311	0	-1.942617564e-05	-80.76244354	-0.0001835597795	1.0
[LeftHand]
13	283.2879944	0	0	2.808979511	-27.03104591	29.36868095	1.0
14	283.2879944	0	0	1.521561265	-23.43031883	30.18776894	1.0
15	283.2879944	0	0	0.3377014995	-24.68337822	31.66070557	1.0
[LeftHandThumb1]
13	24.6609993	-15.75	26.8239994	-7.687894821	-2.87317729	19.62811661	1.0
14	24.6609993	-15.75	26.8239994	-7.687894821	-2.87317729	19.62811661	1.0
15	24.6609993	-15.75	26.8239994	-7.687894821	-2.87317729	19.62811661	1.0
[LeftHandThumb2]
13	32.29800034	-18.64699936	18.64699936	11.11079693	35.50444794	-10.16114426	1.0
14	32.29800034	-18.64699936	18.64699936	11.28543854	37.55512238	-10.51699924	1.0
15	32.29800034	-18.64699936	18.64699936	11.41178513	39.07594299	-10.76482296	1.0
[LeftHandThumb3]
13	26.52600098	-15.31499958	15.31499958	-23.19008255	-35.40414429	43.30867386	1.0
14	26.52600098	-15.31499958	15.31499958	-22.79097557	-35.24102783	42.78748322	1.0
15	26.52600098	-15.31499958	15.31499958	-20.91933823	-32.81484985	37.55306244	1.0
[LeftHandThumb4]
13	19.54599953	-11.28499985	11.28499985	0	0	0	1.0
14	19.54599953	-11.28499985	11.28499985	0	0	0	1.0
15	19.54599953	-11.28499985	11.28499985	0	0	0	1.0
[LeftHandIndex1]
13	91.09299469	-5.170999527	22.60099792	4.52604723	-8.058768272	-15.2199564	1.0
14	91.09299469	-5.170999527	22.60099792	4.17265892	-8.785103798	-12.71173191	1.0
15	91.09299469	-5.170999527	22.60099792	3.203562021	-9.146892548	-16.91110229	1.0
[LeftHandIndex2]
13	36.76399994	0	0	-5.102743149	5.780390739	-82.86345673	1.0
14	36.76399994	0	0	-5.121237278	5.782666206	-83.04708099	1.0
15	36.76399994	0	0	-4.999303818	5.765405655	-81.83372498	1.0
[LeftHandIndex3]
13	28.83100128	0	0	-0.8917382956	3.101238489	-32.07751083	1.0
14	28.83100128	0	0	-0.887709856	3.09481287	-32.00299072	1.0
15	28.83100128	0	0	-0.8474525809	3.028591156	-31.24148941	1.0
[LeftHandIndex4]
13	23.92700005	0	0	0	0	0	1.0
14	23.92700005	0	0	0	0	0	1.0
15	23.92700005	0	0	0	0	0	1.0
[LeftHandMiddle1]
13	95.33399963	0	0	-3.626005411	-6.751206875	-48.42079926	1.0
14	95.33399963	0	0	-3.147075176	-5.537455082	-43.7164917	1.0
15	95.33399963	0	0	-3.144958019	-3.871776581	-43.58269501	1.0
[LeftHandMiddle2]
13	36.98199844	0	0	-3.473865032	5.331063747	-66.15699768	1.0
14	36.98199844	0	0	-3.487277508	5.336936474	-66.30117798	1.0
15	36.98199844	0	0	-3.449550152	5.320118904	-65.89426422	1.0
[LeftHandMiddle3]
13	29.50900078	0	0	-1.282033682	3.649722099	-38.69876099	1.0
14	29.50900078	0	0	-1.266297817	3.630041599	-38.45098114	1.0
15	29.50900078	0	0	-1.163012505	3.492502689	-36.75965118	1.0
[LeftHandMiddle4]
13	28.3390007	0	0	0	0	0	1.0
14	28.3390007	0	0	0	0	0	1.0
15	28.3390007	0	0	0	0	0	1.0
[LeftHandRing1]
13	91.04499817	-0.4390000105	-18.65100098	-4.278501034	-0.5819704533	-54.19276047	1.0
14	91.04499817	-0.4390000105	-18.65100098	-4.089252949	1.306072831	-52.36665344	1.0
15	91.04499817	-0.4390000105	-18.65100098	-4.070204735	1.800740957	-52.17890167	1.0
[LeftHandRing2]
13	31.54000092	0	0	-4.291617393	5.620389938	-74.71097565	1.0
14	31.54000092	0	0	-4.169522285	5.58575201	-73.46039581	1.0
15	31.54000092	0	0	-4.200576782	5.59485054	-73.77923584	1.0
[LeftHandRing3]
13	29.37700081	0	0	-1.039937019	3.325651407	-34.72085571	1.0
14	29.37700081	0	0	-1.056561828	3.3494699	-35.00630569	1.0
15	29.37700081	0	0	-0.9425944686	3.174057007	-32.9502182	1.0
[LeftHandRing4]
13	26.47500038	0	0	0	0	0	1.0
14	26.47500038	0	0	0	0	0	1.0
15	26.47500038	0	0	0	0	0	1.0
[LeftHandPinky1]
13	80.77799988	-4.887000084	-38.06099701	-4.634091377	0.2641888261	-57.44844055	1.0
14	80.77799988	-4.887000084	-38.06099701	-4.859325409	1.264980555	-56.91732025	1.0
15	80.77799988	-4.887000084	-38.06099701	-5.127105236	1.913142204	-57.6169014	1.0
[LeftHandPinky2]
13	36	0	0	-2.610051394	4.860091686	-56.45431519	1.0
14	36	0	0	-2.48395896	4.774412632	-54.95294189	1.0
15	36	0	0	-2.519349813	4.798740864	-55.37587738	1.0
[LeftHandPinky3]
13	21.14200211	0	0	-1.245957971	3.604312897	-38.128479	1.0
14	21.14200211	0	0	-1.20886755	3.556653976	-37.53462601	1.0
15	21.14200211	0	0	-1.086812258	3.386440754	-35.47516632	1.0
[LeftHandPinky4]
13	19.75699997	0	0	0	0	0	1.0
14	19.75699997	0	0	0	0	0	1.0
15	19.75699997	0	0	0	0	0	1.0
[RightShoulder]
13	-45.70000076	109.4620056	-26.28000069	2.23226738	7.932395458	10.53842258	1.0
14	-45.70000076	109.4620056	-26.28000069	2.102171421	5.870791435	14.3155632	1.0
15	-45.70000076	109.4620056	-26.28000069	2.564091682	6.52736187	18.66498947	1.0
[RightArm]
13	-105.9280014	-5.248000145	-22.32099915	30.42001152	-46.23500061	21.34117317	1.0
14	-105.9280014	-5.248000145	-22.32099915	18.94608688	-34.6560936	31.7988205	1.0
15	-105.9280014	-5.248000145	-22.32099915	13.0448513	-16.53726768	35.26734543	1.0
[RightForeArm]
13	-278.414978	0	0	-0.0001983642578	91.89673615	-9.155273438e-05	1.0
14	-278.414978	0	0	-0.001831054688	90.15028381	-0.0004577636719	1.0
15	-278.414978	0	0	-0.00100710406	85.07444763	-0.0002535691601	1.0
[RightHand]
13	-283.2879944	0	0.0009999999311	6.680486679	-3.840179443	-3.225246906	1.0
14	-283.2879944	0	0.0009999999311	15.40942192	-3.319051266	-4.202819824	1.0
15	-283.2879944	0	0.0009999999311	24.0385685	0.5246435404	-6.448863029	1.0
[RightHandPinky1]
13	-80.76699829	-4.885000229	-38.06000137	-10.22193336	-1.726533771	90.89792633	1.0
14	-80.76699829	-4.885000229	-38.06000137	-11.18571091	-3.007153273	88.14842224	1.0
15	-80.76699829	-4.885000229	-38.06000137	-10.77035427	-2.646453857	87.55942535	1.0
[RightHandPinky2]
13	-36	0	0.0009999999311	-3.356236219	-4.452094078	74.02970886	1.0
14	-36	0	0.0009999999311	-3.231453657	-4.414551258	72.4155426	1.0
15	-36	0	0.0009999999311	-3.214800835	-4.410225391	72.20257568	1.0
[RightHandPinky3]
13	-21.14200211	0	0	-2.808437586	-4.257670879	66.80526733	1.0
14	-21.14200211	0	0	-2.84739399	-4.274113655	67.32904816	1.0
15	-21.14200211	0	0	-2.861778736	-4.280310631	67.52313232	1.0
[RightHandPinky4]
13	-19.75699997	0	0	0	0	0	1.0
14	-19.75699997	0	0	0	0	0	1.0
15	-19.75699997	0	0	0	0	0	1.0
[RightHandRing1]
13	-91.03599548	-0.4390000105	-18.65100098	-6.153767109	1.617858052	80.97944641	1.0
14	-91.03599548	-0.4390000105	-18.65100098	-5.72760725	1.713389635	76.14990234	1.0
15	-91.03599548	-0.4390000105	-18.65100098	-5.778829575	1.927715778	76.71685791	1.0
[RightHandRing2]
13	-31.54000092	0	0	-3.132478237	-4.382009506	71.10531616	1.0
14	-31.54000092	0	0	-3.250544548	-4.420541286	72.64365387	1.0
15	-31.54000092	0	0	-3.213001728	-4.408693314	72.15607452	1.0
[RightHandRing3]
13	-29.37700081	0	0	-0.9992982149	-2.875243902	38.32354355	1.0
14	-29.37700081	0	0	-1.055686712	-2.945091248	39.43417358	1.0
15	-29.37700081	0	0	-1.090533376	-2.98714757	40.10979462	1.0
[RightHandRing4]
13	-26.47500038	0	0	0	0	0	1.0
14	-26.47500038	0	0	0	0	0	1.0
15	-26.47500038	0	0	0	0	0	1.0
[RightHandMiddle1]
13	-95.32500458	0	0	-4.669606686	9.149601936	64.47998047	1.0
14	-95.32500458	0	0	-4.152300835	9.343353271	58.92422867	1.0
15	-95.32500458	0	0	-4.126232147	8.789150238	58.63898849	1.0
[RightHandMiddle2]
13	-36.98199844	0	0	-3.290864468	-4.432906151	73.16605377	1.0
14	-36.98199844	0	0	-3.480148792	-4.485652924	75.60025024	1.0
15	-36.98199844	0	0	-3.470659018	-4.483513832	75.47994995	1.0
[RightHandMiddle3]
13	-29.50900078	0	0	-1.718454957	-3.603791475	51.00156403	1.0
14	-29.50900078	0	0	-1.773370743	-3.647480965	51.8705101	1.0
15	-29.50900078	0	0	-1.818865061	-3.682531118	52.58165741	1.0
[RightHandMiddle4]
13	-28.3390007	0	0.0009999999311	0	0	0	1.0
14	-28.3390007	0	0.0009999999311	0	0	0	1.0
15	-28.3390007	0	0.0009999999311	0	0	0	1.0
[RightHandIndex1]
13	-91.08300018	-5.167999744	22.60099792	-2.10064888	0.5313472152	59.18063736	1.0
14	-91.08300018	-5.167999744	22.60099792	-2.468510151	-0.7244691253	50.06806183	1.0
15	-91.08300018	-5.167999744	22.60099792	-2.967936039	-0.2520851493	49.98562622	1.0
[RightHandIndex2]
13	-36.76399994	0	0	-2.149410725	-3.910929918	57.5723877	1.0
14	-36.76399994	0	0	-2.218580961	-3.953919411	58.58112335	1.0
15	-36.76399994	0	0	-2.158964157	-3.916747093	57.71094513	1.0
[RightHandIndex3]
13	-28.83100128	0	0	-0.8329672813	-2.65154314	34.8748436	1.0
14	-28.83100128	0	0	-0.905515492	-2.752579927	36.41330719	1.0
15	-28.83100128	0	0	-0.9020519257	-2.748105526	36.34339523	1.0
[RightHandIndex4]
13	-23.92700005	0	0	0	0	0	1.0
14	-23.92700005	0	0	0	0	0	1.0
15	-23.92700005	0	0	0	0	0	1.0
[RightHandThumb1]
13	-24.64799881	-15.72700024	26.82600021	-10.80079556	1.639939547	-1.271696329	1.0
14	-24.64799881	-15.72700024	26.82600021	-10.80079556	1.639939547	-1.271696329	1.0
15	-24.64799881	-15.72700024	26.82600021	-10.80079556	1.639939547	-1.271696329	1.0
[RightHandThumb2]
13	-32.29800034	-18.64699936	18.64699936	22.6025219	-33.05912781	-4.294882774	1.0
14	-32.29800034	-18.64699936	18.64699936	21.05521584	-28.59643173	-4.328033447	1.0
15	-32.29800034	-18.64699936	18.64699936	20.78493309	-27.78488731	-4.346558094	1.0
[RightHandThumb3]
13	-26.52600098	-15.31399918	15.31399918	-16.57049751	14.5241518	-3.670909405	1.0
14	-26.52600098	-15.31399918	15.31399918	-16.55168724	15.70684433	-5.343214512	1.0
15	-26.52600098	-15.31399918	15.31399918	-16.54871941	16.97077942	-6.927083969	1.0
[RightHandThumb4]
13	-19.54599953	-11.28499985	11.28499985	0	0	0	1.0
14	-19.54599953	-11.28499985	11.28499985	0	0	0	1.0
15	-19.54599953	-11.28499985	11.28499985	0	0	0	1.0
[LeftUpLeg]
13	82.07800293	-67.51699829	-15.99599934	16.45283508	6.626135826	8.205545425	1.0
14	82.07800293	-67.51699829	-15.99599934	8.223670959	4.790657043	5.176620483	1.0
15	82.07800293	-67.51699829	-15.99599934	-6.152730465	7.040384293	8.235513687	1.0
[LeftLeg]
13	0	-443.7049866	2.845999956	19.69239998	-2.61457181	1.315413594	1.0
14	0	-443.7049866	2.845999956	49.08045578	-0.7359413505	2.802582026	1.0
15	0	-443.7049866	2.845999956	80.3759613	-0.6657669544	1.527885437	1.0
[LeftFoot]
13	0	-444.2789917	-29.8219986	23.83770561	0.7774586678	-7.594475269	1.0
14	0	-444.2789917	-29.8219986	19.51483917	0.4254325628	-7.621427059	1.0
15	0	-444.2789917	-29.8219986	11.71833801	-0.2892970741	-2.872187376	1.0
[LeftToeBase]
13	0	-87.28699493	107.1060028	-3.492678404	1.238769528e-06	-1.815143037e-06	1.0
14	0	-87.28699493	107.1060028	-2.590322018	-2.682961849e-06	7.87617239e-07	1.0
15	0	-87.28699493	107.1060028	-1.831681013	-2.156428991e-06	3.774956099e-07	1.0
[RightUpLeg]
13	-82.07800293	-67.51699829	-15.99599934	-81.22873688	5.548073769	2.991161108	1.0
14	-82.07800293	-67.51699829	-15.99599934	-69.89910889	2.759048223	2.87389636	1.0
15	-82.07800293	-67.51699829	-15.99599934	-65.35128784	4.531978607	4.46281147	1.0
[RightLeg]
13	0	-443.7049866	2.861999989	51.20217896	-3.436645985	0.9470711946	1.0
14	0	-443.7049866	2.861999989	36.93859482	-4.359323502	0.3293527365	1.0
15	0	-443.7049866	2.861999989	48.60609055	-3.810286999	-2.016257286	1.0
[RightFoot]
13	0	-444.2770081	-29.83799934	-8.087538719	0.4632842839	5.80120039	1.0
14	0	-444.2770081	-29.83799934	-7.255455971	0.4940471053	6.821400642	1.0
15	0	-444.2770081	-29.83799934	-10.31179714	0.3880677223	4.878064156	1.0
[RightToeBase]
13	0	-87.28699493	107.1060028	0.4048533738	-2.508253374e-07	2.699198603e-06	1.0
14	0	-87.28699493	107.1060028	2.650843143	-1.55664361e-06	1.665481591e-06	1.0
15	0	-87.28699493	107.1060028	-1.824666142	-3.85842759e-06	7.214161997e-07	1.0
[EndOfFile]
